<?xml version="1.0" encoding="UTF-8"?>
<svg xmlns="http://www.w3.org/2000/svg" width="1100" height="800" viewBox="0 0 1100 800">
  <rect x="0" y="0" width="1100" height="800" fill="#FAFBFD"/>
  <style>
    .nodo{fill:#EEF6FF;stroke:#2E5D8A;stroke-width:1.6;}
    .textoNodo{font-family:DejaVu Sans,Arial,sans-serif;font-size:14px;fill:#12344D;text-anchor:middle;dominant-baseline:middle;}
    .arista{stroke:#4A4A4A;stroke-width:1.5;fill:none;}
    .peso{font-family:DejaVu Sans,Arial,sans-serif;font-size:12px;fill:#2C3E50;text-anchor:middle;dominant-baseline:middle;}
    .titulo{font-family:DejaVu Sans,Arial,sans-serif;font-size:18px;fill:#0F172A;font-weight:bold;}
  </style>
  <text class="titulo" x="20" y="35">Grafo no dirigido | Vertices: 24 | Arcos: 137</text>
  <line class="arista" x1="585.692" y1="136.699" x2="588.848" y2="137.114"/>
  <line class="arista" x1="584.773" y1="141.317" x2="659.227" y2="161.267"/>
  <line class="arista" x1="578.561" y1="153.915" x2="799.626" y2="323.545"/>
  <line class="arista" x1="575.456" y1="157.456" x2="812.544" y2="394.544"/>
  <line class="arista" x1="568" y1="163.177" x2="781.415" y2="532.823"/>
  <line class="arista" x1="563.777" y1="165.26" x2="739.87" y2="590.387"/>
  <line class="arista" x1="554.699" y1="167.692" x2="619.841" y2="662.495"/>
  <line class="arista" x1="524.544" y1="157.456" x2="287.456" y2="394.544"/>
  <line class="arista" x1="521.439" y1="153.915" x2="300.374" y2="323.545"/>
  <line class="arista" x1="518.823" y1="150" x2="331.762" y2="258"/>
  <line class="arista" x1="515.227" y1="141.317" x2="440.773" y2="161.267"/>
  <line class="arista" x1="657.8" y1="155.59" x2="660.74" y2="156.808"/>
  <line class="arista" x1="646.455" y1="170.374" x2="816.085" y2="391.439"/>
  <line class="arista" x1="638.316" y1="175.073" x2="785.639" y2="530.74"/>
  <line class="arista" x1="619.841" y1="177.505" x2="554.699" y2="672.308"/>
  <line class="arista" x1="615.222" y1="176.587" x2="484.778" y2="663.413"/>
  <line class="arista" x1="610.763" y1="175.073" x2="419.777" y2="636.156"/>
  <line class="arista" x1="606.54" y1="172.99" x2="364.353" y2="592.47"/>
  <line class="arista" x1="599.084" y1="167.269" x2="297.269" y2="469.084"/>
  <line class="arista" x1="589.767" y1="151.131" x2="381.127" y2="207.036"/>
  <line class="arista" x1="722.561" y1="192.5" x2="725.086" y2="194.438"/>
  <line class="arista" x1="712" y1="201.762" x2="820" y2="388.823"/>
  <line class="arista" x1="703.317" y1="205.358" x2="790.098" y2="529.227"/>
  <line class="arista" x1="694" y1="206.585" x2="694" y2="633.415"/>
  <line class="arista" x1="676" y1="201.762" x2="424" y2="638.238"/>
  <line class="arista" x1="668.544" y1="196.041" x2="326.041" y2="538.544"/>
  <line class="arista" x1="665.439" y1="192.5" x2="300.374" y2="472.624"/>
  <line class="arista" x1="660.74" y1="184.361" x2="305.073" y2="331.684"/>
  <line class="arista" x1="659.227" y1="179.902" x2="335.358" y2="266.683"/>
  <line class="arista" x1="658.308" y1="175.284" x2="382.045" y2="211.654"/>
  <line class="arista" x1="658" y1="170.585" x2="442" y2="170.585"/>
  <line class="arista" x1="775.562" y1="244.914" x2="777.5" y2="247.439"/>
  <line class="arista" x1="767.423" y1="249.613" x2="824.223" y2="386.74"/>
  <line class="arista" x1="753.647" y1="252.353" x2="753.647" y2="587.647"/>
  <line class="arista" x1="735.647" y1="247.53" x2="493.46" y2="667.01"/>
  <line class="arista" x1="731.731" y1="244.914" x2="427.915" y2="640.855"/>
  <line class="arista" x1="728.191" y1="241.809" x2="371.809" y2="598.191"/>
  <line class="arista" x1="722.47" y1="234.353" x2="302.99" y2="476.54"/>
  <line class="arista" x1="720.387" y1="230.13" x2="295.26" y2="406.223"/>
  <line class="arista" x1="717.955" y1="221.052" x2="336.277" y2="271.301"/>
  <line class="arista" x1="717.955" y1="211.654" x2="441.692" y2="175.284"/>
  <line class="arista" x1="804.114" y1="311.692" x2="823.488" y2="458.848"/>
  <line class="arista" x1="794.716" y1="311.692" x2="758.346" y2="587.955"/>
  <line class="arista" x1="790.098" y1="310.773" x2="703.317" y2="634.642"/>
  <line class="arista" x1="770.855" y1="297.915" x2="374.914" y2="601.731"/>
  <line class="arista" x1="763.723" y1="271.301" x2="382.045" y2="221.052"/>
  <line class="arista" x1="764.642" y1="266.683" x2="440.773" y2="179.902"/>
  <line class="arista" x1="766.156" y1="262.223" x2="508.72" y2="155.59"/>
  <line class="arista" x1="832.886" y1="381.152" x2="833.301" y2="384.308"/>
  <line class="arista" x1="814.41" y1="378.72" x2="707.777" y2="636.156"/>
  <line class="arista" x1="810.187" y1="376.637" x2="642.54" y2="667.01"/>
  <line class="arista" x1="794.927" y1="359.237" x2="333.844" y2="550.223"/>
  <line class="arista" x1="793.413" y1="354.778" x2="306.587" y2="485.222"/>
  <line class="arista" x1="792.495" y1="340.761" x2="336.277" y2="280.699"/>
  <line class="arista" x1="794.927" y1="331.684" x2="439.26" y2="184.361"/>
  <line class="arista" x1="833.301" y1="455.692" x2="832.886" y2="458.848"/>
  <line class="arista" x1="824.223" y1="453.26" x2="767.423" y2="590.387"/>
  <line class="arista" x1="804.74" y1="433.777" x2="379.613" y2="609.87"/>
  <line class="arista" x1="802.308" y1="424.699" x2="307.505" y2="489.841"/>
  <line class="arista" x1="802" y1="420" x2="298" y2="420"/>
  <line class="arista" x1="802.308" y1="415.301" x2="307.505" y2="350.159"/>
  <line class="arista" x1="803.227" y1="410.683" x2="335.358" y2="285.317"/>
  <line class="arista" x1="804.74" y1="406.223" x2="379.613" y2="230.13"/>
  <line class="arista" x1="809.439" y1="398.085" x2="504.021" y2="163.729"/>
  <line class="arista" x1="814.41" y1="527.8" x2="813.192" y2="530.74"/>
  <line class="arista" x1="810.187" y1="525.717" x2="771.647" y2="592.47"/>
  <line class="arista" x1="797.01" y1="512.54" x2="506.637" y2="680.187"/>
  <line class="arista" x1="793.413" y1="503.857" x2="381.127" y2="614.329"/>
  <line class="arista" x1="792.495" y1="499.239" x2="336.277" y2="559.301"/>
  <line class="arista" x1="792.187" y1="494.54" x2="307.813" y2="494.54"/>
  <line class="arista" x1="792.495" y1="489.841" x2="297.692" y2="424.699"/>
  <line class="arista" x1="797.01" y1="476.54" x2="377.53" y2="234.353"/>
  <line class="arista" x1="799.626" y1="472.624" x2="434.561" y2="192.5"/>
  <line class="arista" x1="802.731" y1="469.084" x2="500.916" y2="167.269"/>
  <line class="arista" x1="773.959" y1="589.456" x2="719.456" y2="643.959"/>
  <line class="arista" x1="770.855" y1="585.915" x2="653.101" y2="676.271"/>
  <line class="arista" x1="766.156" y1="577.777" x2="508.72" y2="684.41"/>
  <line class="arista" x1="763.415" y1="564" x2="336.585" y2="564"/>
  <line class="arista" x1="763.723" y1="559.301" x2="307.505" y2="499.239"/>
  <line class="arista" x1="773.959" y1="538.544" x2="431.456" y2="196.041"/>
  <line class="arista" x1="722.47" y1="641.647" x2="655.717" y2="680.187"/>
  <line class="arista" x1="720.387" y1="637.423" x2="583.26" y2="694.223"/>
  <line class="arista" x1="718.873" y1="632.964" x2="510.233" y2="688.869"/>
  <line class="arista" x1="717.647" y1="623.647" x2="382.353" y2="623.647"/>
  <line class="arista" x1="722.47" y1="605.647" x2="302.99" y2="363.46"/>
  <line class="arista" x1="735.647" y1="592.47" x2="493.46" y2="172.99"/>
  <line class="arista" x1="660.74" y1="683.192" x2="657.8" y2="684.41"/>
  <line class="arista" x1="659.227" y1="678.733" x2="584.773" y2="698.683"/>
  <line class="arista" x1="658" y1="669.415" x2="442" y2="669.415"/>
  <line class="arista" x1="662.823" y1="651.415" x2="293.177" y2="438"/>
  <line class="arista" x1="588.848" y1="702.886" x2="585.692" y2="703.301"/>
  <line class="arista" x1="588.54" y1="698.187" x2="511.46" y2="698.187"/>
  <line class="arista" x1="588.848" y1="693.488" x2="441.692" y2="674.114"/>
  <line class="arista" x1="589.767" y1="688.869" x2="381.127" y2="632.964"/>
  <line class="arista" x1="591.28" y1="684.41" x2="333.844" y2="577.777"/>
  <line class="arista" x1="595.979" y1="676.271" x2="290.561" y2="441.915"/>
  <line class="arista" x1="602.624" y1="669.626" x2="322.5" y2="304.561"/>
  <line class="arista" x1="610.763" y1="664.927" x2="419.777" y2="203.844"/>
  <line class="arista" x1="615.222" y1="663.413" x2="484.778" y2="176.587"/>
  <line class="arista" x1="514.308" y1="703.301" x2="511.152" y2="702.886"/>
  <line class="arista" x1="515.227" y1="698.683" x2="440.773" y2="678.733"/>
  <line class="arista" x1="518.823" y1="690" x2="331.762" y2="582"/>
  <line class="arista" x1="524.544" y1="682.544" x2="287.456" y2="445.456"/>
  <line class="arista" x1="536.223" y1="674.74" x2="360.13" y2="249.613"/>
  <line class="arista" x1="446.899" y1="676.271" x2="329.145" y2="585.915"/>
  <line class="arista" x1="461.684" y1="664.927" x2="314.361" y2="309.26"/>
  <line class="arista" x1="470.761" y1="662.495" x2="410.699" y2="206.277"/>
  <line class="arista" x1="475.46" y1="662.187" x2="475.46" y2="177.813"/>
  <line class="arista" x1="377.439" y1="647.5" x2="374.914" y2="645.562"/>
  <line class="arista" x1="384.085" y1="640.855" x2="293.729" y2="523.101"/>
  <line class="arista" x1="388" y1="638.238" x2="280" y2="451.177"/>
  <line class="arista" x1="396.683" y1="634.642" x2="309.902" y2="310.773"/>
  <line class="arista" x1="406" y1="633.415" x2="406" y2="206.585"/>
  <line class="arista" x1="324.438" y1="595.086" x2="322.5" y2="592.561"/>
  <line class="arista" x1="328.353" y1="592.47" x2="289.813" y2="525.717"/>
  <line class="arista" x1="337.036" y1="588.873" x2="281.131" y2="380.233"/>
  <line class="arista" x1="341.654" y1="587.955" x2="305.284" y2="311.692"/>
  <line class="arista" x1="346.353" y1="587.647" x2="346.353" y2="252.353"/>
  <line class="arista" x1="286.808" y1="530.74" x2="285.59" y2="527.8"/>
  <line class="arista" x1="291.267" y1="529.227" x2="271.317" y2="454.773"/>
  <line class="arista" x1="295.886" y1="528.308" x2="276.512" y2="381.152"/>
  <line class="arista" x1="300.585" y1="528" x2="300.585" y2="312"/>
  <line class="arista" x1="305.284" y1="528.308" x2="341.654" y2="252.045"/>
  <line class="arista" x1="309.902" y1="529.227" x2="396.683" y2="205.358"/>
  <line class="arista" x1="314.361" y1="530.74" x2="461.684" y2="175.073"/>
  <line class="arista" x1="271.813" y1="458.54" x2="271.813" y2="381.46"/>
  <line class="arista" x1="276.512" y1="458.848" x2="295.886" y2="311.692"/>
  <line class="arista" x1="281.131" y1="459.767" x2="337.036" y2="251.127"/>
  <line class="arista" x1="266.699" y1="384.308" x2="267.114" y2="381.152"/>
  <line class="arista" x1="275.777" y1="386.74" x2="332.577" y2="249.613"/>
  <line class="arista" x1="285.59" y1="312.2" x2="286.808" y2="309.26"/>
  <line class="arista" x1="289.813" y1="314.283" x2="328.353" y2="247.53"/>
  <line class="arista" x1="326.041" y1="250.544" x2="380.544" y2="196.041"/>
  <line class="arista" x1="329.145" y1="254.085" x2="446.899" y2="163.729"/>
  <line class="arista" x1="374.914" y1="194.438" x2="377.439" y2="192.5"/>
  <line class="arista" x1="377.53" y1="198.353" x2="444.283" y2="159.813"/>
  <line class="arista" x1="439.26" y1="156.808" x2="442.2" y2="155.59"/>
  <circle class="nodo" cx="550" cy="132" r="36"/>
  <text class="textoNodo" x="550" y="132">23</text>
  <circle class="nodo" cx="624.54" cy="141.813" r="36"/>
  <text class="textoNodo" x="624.54" y="141.813">22</text>
  <circle class="nodo" cx="694" cy="170.585" r="36"/>
  <text class="textoNodo" x="694" y="170.585">21</text>
  <circle class="nodo" cx="753.647" cy="216.353" r="36"/>
  <text class="textoNodo" x="753.647" y="216.353">20</text>
  <circle class="nodo" cx="799.415" cy="276" r="36"/>
  <text class="textoNodo" x="799.415" y="276">19</text>
  <circle class="nodo" cx="828.187" cy="345.46" r="36"/>
  <text class="textoNodo" x="828.187" y="345.46">18</text>
  <circle class="nodo" cx="838" cy="420" r="36"/>
  <text class="textoNodo" x="838" y="420">17</text>
  <circle class="nodo" cx="828.187" cy="494.54" r="36"/>
  <text class="textoNodo" x="828.187" y="494.54">16</text>
  <circle class="nodo" cx="799.415" cy="564" r="36"/>
  <text class="textoNodo" x="799.415" y="564">15</text>
  <circle class="nodo" cx="753.647" cy="623.647" r="36"/>
  <text class="textoNodo" x="753.647" y="623.647">14</text>
  <circle class="nodo" cx="694" cy="669.415" r="36"/>
  <text class="textoNodo" x="694" y="669.415">13</text>
  <circle class="nodo" cx="624.54" cy="698.187" r="36"/>
  <text class="textoNodo" x="624.54" y="698.187">12</text>
  <circle class="nodo" cx="550" cy="708" r="36"/>
  <text class="textoNodo" x="550" y="708">11</text>
  <circle class="nodo" cx="475.46" cy="698.187" r="36"/>
  <text class="textoNodo" x="475.46" y="698.187">10</text>
  <circle class="nodo" cx="406" cy="669.415" r="36"/>
  <text class="textoNodo" x="406" y="669.415">9</text>
  <circle class="nodo" cx="346.353" cy="623.647" r="36"/>
  <text class="textoNodo" x="346.353" y="623.647">8</text>
  <circle class="nodo" cx="300.585" cy="564" r="36"/>
  <text class="textoNodo" x="300.585" y="564">7</text>
  <circle class="nodo" cx="271.813" cy="494.54" r="36"/>
  <text class="textoNodo" x="271.813" y="494.54">6</text>
  <circle class="nodo" cx="262" cy="420" r="36"/>
  <text class="textoNodo" x="262" y="420">5</text>
  <circle class="nodo" cx="271.813" cy="345.46" r="36"/>
  <text class="textoNodo" x="271.813" y="345.46">4</text>
  <circle class="nodo" cx="300.585" cy="276" r="36"/>
  <text class="textoNodo" x="300.585" y="276">3</text>
  <circle class="nodo" cx="346.353" cy="216.353" r="36"/>
  <text class="textoNodo" x="346.353" y="216.353">2</text>
  <circle class="nodo" cx="406" cy="170.585" r="36"/>
  <text class="textoNodo" x="406" y="170.585">1</text>
  <circle class="nodo" cx="475.46" cy="141.813" r="36"/>
  <text class="textoNodo" x="475.46" y="141.813">0</text>
</svg>
