<?xml version="1.0" encoding="UTF-8"?>
<svg xmlns="http://www.w3.org/2000/svg" width="1100" height="800" viewBox="0 0 1100 800">
  <rect x="0" y="0" width="1100" height="800" fill="#FAFBFD"/>
  <style>
    .nodo{fill:#EEF6FF;stroke:#2E5D8A;stroke-width:1.6;}
    .textoNodo{font-family:DejaVu Sans,Arial,sans-serif;font-size:14px;fill:#12344D;text-anchor:middle;dominant-baseline:middle;}
    .arista{stroke:#4A4A4A;stroke-width:1.5;fill:none;}
    .peso{font-family:DejaVu Sans,Arial,sans-serif;font-size:12px;fill:#2C3E50;text-anchor:middle;dominant-baseline:middle;}
    .titulo{font-family:DejaVu Sans,Arial,sans-serif;font-size:18px;fill:#0F172A;font-weight:bold;}
  </style>
  <text class="titulo" x="20" y="35">Grafo no dirigido | Vertices: 9 | Arcos: 8</text>
  <line class="arista" x1="583.829" y1="144.313" x2="701.294" y2="187.066"/>
  <line class="arista" x1="701.294" y1="211.692" x2="300.204" y2="357.677"/>
  <line class="arista" x1="753.123" y1="230.556" x2="815.625" y2="338.812"/>
  <line class="arista" x1="806.047" y1="393.13" x2="479.076" y2="667.491"/>
  <line class="arista" x1="771.838" y1="587.14" x2="676.079" y2="667.491"/>
  <line class="arista" x1="612.502" y1="690.631" x2="487.498" y2="690.631"/>
  <line class="arista" x1="423.921" y1="667.491" x2="328.162" y2="587.14"/>
  <line class="arista" x1="284.375" y1="338.812" x2="346.877" y2="230.556"/>
  <circle class="nodo" cx="550" cy="132" r="36"/>
  <text class="textoNodo" x="550" y="132">6</text>
  <circle class="nodo" cx="735.123" cy="199.379" r="36"/>
  <text class="textoNodo" x="735.123" y="199.379">5</text>
  <circle class="nodo" cx="833.625" cy="369.989" r="36"/>
  <text class="textoNodo" x="833.625" y="369.989">4</text>
  <circle class="nodo" cx="799.415" cy="564" r="36"/>
  <text class="textoNodo" x="799.415" y="564">3</text>
  <circle class="nodo" cx="648.502" cy="690.631" r="36"/>
  <text class="textoNodo" x="648.502" y="690.631">2</text>
  <circle class="nodo" cx="451.498" cy="690.631" r="36"/>
  <text class="textoNodo" x="451.498" y="690.631">1</text>
  <circle class="nodo" cx="300.585" cy="564" r="36"/>
  <text class="textoNodo" x="300.585" y="564">0</text>
  <circle class="nodo" cx="266.375" cy="369.989" r="36"/>
  <text class="textoNodo" x="266.375" y="369.989">7</text>
  <circle class="nodo" cx="364.877" cy="199.379" r="36"/>
  <text class="textoNodo" x="364.877" y="199.379">8</text>
</svg>
